<svg xmlns="http://www.w3.org/2000/svg" xmlns:xlink="http://www.w3.org/1999/xlink" id="Layer_1" x="0px" y="0px" viewBox="0 0 479 479" style="enable-background:new 0 0 479 479;" xml:space="preserve">
<style type="text/css">
	.st0{fill:#C60C49;}
</style>
<path class="st0" d="M466,318l-25-6.3c-2.1-6.9-4.9-13.6-8.3-20l13.3-22.1c1.9-3.1,1.4-7.2-1.2-9.8l-24.9-25  c-2.6-2.6-6.6-3.1-9.8-1.2L387.9,247c-2.9-1.5-5.8-3-8.8-4.3c-3.6-1.5-7.4-2.9-11.2-4l-6.3-25c-0.9-3.6-4.1-6.1-7.7-6.1h-35.2  c-3.7,0-6.9,2.5-7.7,6.1l-6.3,25c-6.9,2.1-13.6,4.9-20,8.3l-22.1-13.3c-3.1-1.9-7.2-1.4-9.8,1.2l-25,24.9c-2.6,2.6-3.1,6.6-1.2,9.8  l13.3,22.1c-3.4,6.4-6.2,13-8.3,20l-25,6.3c-3.6,0.9-6.1,4.1-6.1,7.7v35.2c0,3.7,2.5,6.9,6.1,7.7l25,6.3c2.1,6.9,4.9,13.6,8.3,20  L226.6,417c-1.9,3.1-1.4,7.2,1.2,9.8l24.9,24.9c2.6,2.6,6.6,3.1,9.8,1.2l22.1-13.3c6.4,3.4,13,6.2,20,8.3l6.3,25  c0.9,3.6,4.1,6.1,7.7,6.1h35.2c3.7,0,6.9-2.5,7.7-6.1l6.3-25c6.9-2.1,13.6-4.9,20-8.3l22.1,13.3c3.1,1.9,7.2,1.4,9.8-1.2l24.9-24.9  c2.6-2.6,3.1-6.6,1.2-9.8l-13.3-22.1c3.4-6.4,6.2-13,8.3-20l25-6.3c3.6-0.9,6.1-4.1,6.1-7.7v-35.2C472,322.1,469.5,318.9,466,318z   M456,354.7l-23.5,5.9c-2.9,0.7-5.1,2.9-5.8,5.8c-2.2,8.7-5.6,16.9-10.2,24.6c-1.5,2.5-1.5,5.7,0,8.2l12.5,20.8l-16.1,16.1  l-20.8-12.5c-2.5-1.5-5.7-1.5-8.2,0c-7.7,4.6-16,8-24.6,10.2c-2.9,0.7-5.1,3-5.8,5.8l-5.9,23.5h-22.8l-5.9-23.5  c-0.7-2.9-2.9-5.1-5.8-5.8c-8.7-2.2-16.9-5.6-24.6-10.2c-2.5-1.5-5.7-1.5-8.2,0l-20.8,12.5L243.5,420l12.5-20.8  c1.5-2.5,1.5-5.7,0-8.2c-4.6-7.7-8-16-10.2-24.6c-0.7-2.8-3-5.1-5.8-5.8l-23.5-5.9v-22.8l23.5-5.9c2.9-0.7,5.1-2.9,5.8-5.8  c2.2-8.7,5.6-16.9,10.2-24.6c1.5-2.5,1.5-5.7,0-8.2l-12.5-20.8l16.1-16.1l20.8,12.5c2.5,1.5,5.7,1.5,8.2,0c7.7-4.6,16-8,24.6-10.2  c2.8-0.7,5.1-3,5.8-5.8l5.9-23.5h22.8l5.9,23.5c0.7,2.9,2.9,5.1,5.8,5.8c8.7,2.2,16.9,5.6,24.6,10.2c2.5,1.5,5.7,1.5,8.2,0  l20.8-12.5l16.1,16.1l-12.5,20.8c-1.5,2.5-1.5,5.7,0,8.2c4.6,7.7,8,16,10.2,24.6c0.7,2.8,3,5.1,5.8,5.8l23.5,5.9V354.7z"></path>
<path class="st0" d="M336.3,279.5c-35.3,0-63.9,28.6-63.9,63.9s28.6,63.9,63.9,63.9c35.3,0,63.9-28.6,63.9-63.9  C400.1,308.1,371.5,279.5,336.3,279.5z M336.3,391.2c-26.5,0-47.9-21.5-47.9-47.9s21.4-47.9,47.9-47.9c26.5,0,47.9,21.5,47.9,47.9  C384.2,369.8,362.7,391.2,336.3,391.2z"></path>
<path class="st0" d="M376.2,95.8h16v127.8h-16V95.8z"></path>
<path class="st0" d="M40.9,407.2v31.9c0,4.4,3.6,8,8,8h167.7v-16H56.8v-24h95.8c1.2,0,2.5-0.3,3.6-0.8l31.9-16  c2.7-1.3,4.4-4.1,4.4-7.1c0-3-1.7-5.8-4.4-7.1l-31.9-16c-1.1-0.6-2.3-0.9-3.6-0.9H56.8V87.8h303.4c17.6,0,31.9-14.3,31.9-31.9v-16  c0-4.4-3.6-8-8-8h-24v16h16v8c0,8.8-7.2,16-16,16c-8.8,0-16-7.2-16-16v-24c0-8.8,7.2-16,16-16h31.9c8.8,0,16,7.2,16,16v183.6h16  V31.9c0-17.6-14.3-31.9-31.9-31.9H40.9C23.2,0,8.9,14.3,8.9,31.9v24c0,17.6,14.3,31.9,31.9,31.9v271.5h-8c-13.2,0-24,10.7-24,24  s10.7,24,24,24H40.9z M24.9,55.9v-24c0-8.8,7.2-16,16-16h291.9c-2.9,4.8-4.4,10.3-4.4,16v24c0,5.6,1.6,11.1,4.4,16H40.9  C32,71.9,24.9,64.7,24.9,55.9z M166.7,383.3l-16,8h-6.1v-16h6.1L166.7,383.3z M24.9,383.3c0-4.4,3.6-8,8-8h95.8v16H32.9  C28.5,391.2,24.9,387.7,24.9,383.3z"></path>
<path class="st0" d="M8.9,119.8h16v159.7h-16V119.8z"></path>
<path class="st0" d="M320.3,127.8v-16H216.5c-2.1,0-4.1,0.8-5.6,2.3l-14.6,14.6c-34.9-25.6-83.2-21.8-113.7,8.8  c-3.1,3.1-3.1,8.2,0,11.3l56.5,56.5c1.5,1.5,3.5,2.4,5.6,2.4h79.8c4.4,0,8-3.6,8-8c0-22.5-8.7-44.1-24.2-60.3l11.5-11.5H320.3z   M216.1,191.6H148l-48.2-48.2c24.5-19.7,59-21,85-3.3L163,162l11.3,11.3l22.8-22.8C207.7,161.8,214.3,176.2,216.1,191.6z"></path>
<path class="st0" d="M336.3,111.8h16v16h-16V111.8z"></path>
<path class="st0" d="M96.7,231.5h16v16h-16V231.5z"></path>
<path class="st0" d="M128.7,231.5h79.8v16h-79.8V231.5z"></path>
<path class="st0" d="M80.8,263.5h127.8v16H80.8V263.5z"></path>
<path class="st0" d="M256.4,143.7h16v16h-16V143.7z"></path>
<path class="st0" d="M288.4,143.7h63.9v16h-63.9V143.7z"></path>
<path class="st0" d="M256.4,175.7h95.8v16h-95.8V175.7z"></path>
<path class="st0" d="M80.8,295.4h103.8v16H80.8V295.4z"></path>
</svg>